<?xml version="1.0" encoding="utf-8"?>
<!-- Generator: Adobe Illustrator 14.0.0, SVG Export Plug-In . SVG Version: 6.00 Build 43363)  -->
<!DOCTYPE svg PUBLIC "-//W3C//DTD SVG 1.1//EN" "http://www.w3.org/Graphics/SVG/1.1/DTD/svg11.dtd">
<svg version="1.1" id="Layer_1" xmlns="http://www.w3.org/2000/svg" xmlns:xlink="http://www.w3.org/1999/xlink" x="0px" y="0px"
	 width="100px" height="100px" viewBox="0 0 100 100" enable-background="new 0 0 100 100" xml:space="preserve">
<g id="XMLID_1_">
	<g>
		<path d="M84.461,30.062v36.33c0,8.91-6.801,16.12-15.19,16.12H30.73c-8.39,0-15.19-7.21-15.19-16.12v-36.33
			c0-8.91,6.8-16.12,15.19-16.12h38.54C77.66,13.942,84.461,21.152,84.461,30.062z"/>
	</g>
	<g>
		<path fill="none" stroke="#000000" d="M84.461,66.392c0,8.91-6.801,16.12-15.19,16.12H30.73c-8.39,0-15.19-7.21-15.19-16.12
			v-36.33c0-8.91,6.8-16.12,15.19-16.12h38.54c8.39,0,15.19,7.21,15.19,16.12V66.392z"/>
	</g>
</g>
<g id="XMLID_2_">
	<g>
		<rect x="34.665" y="26.262" fill="#FFFFFF" width="11.8" height="43.93"/>
	</g>
	<g>
		<rect x="34.665" y="26.262" fill="none" stroke="#000000" width="11.8" height="43.93"/>
	</g>
</g>
<g id="XMLID_3_">
	<g>
		<rect x="53.536" y="26.262" fill="#FFFFFF" width="11.8" height="43.93"/>
	</g>
	<g>
		<rect x="53.536" y="26.262" fill="none" stroke="#000000" width="11.8" height="43.93"/>
	</g>
</g>
</svg>
