<?xml version="1.0" encoding="utf-8"?>
<!-- Generator: Adobe Illustrator 14.0.0, SVG Export Plug-In . SVG Version: 6.00 Build 43363)  -->
<!DOCTYPE svg PUBLIC "-//W3C//DTD SVG 1.1//EN" "http://www.w3.org/Graphics/SVG/1.1/DTD/svg11.dtd">
<svg version="1.1" id="Layer_1" xmlns="http://www.w3.org/2000/svg" xmlns:xlink="http://www.w3.org/1999/xlink" x="0px" y="0px"
	 width="100px" height="100px" viewBox="0 0 100 100" enable-background="new 0 0 100 100" xml:space="preserve">
<g id="XMLID_1_">
	<g>
		<path d="M83.876,30.412v36.33c0,8.91-6.8,16.119-15.19,16.119h-38.54c-8.39,0-15.19-7.209-15.19-16.119v-36.33
			c0-8.91,6.8-16.12,15.19-16.12h38.54C77.076,14.292,83.876,21.501,83.876,30.412z"/>
	</g>
	<g>
		<path fill="none" stroke="#000000" d="M83.876,66.741c0,8.909-6.8,16.12-15.19,16.12h-38.54c-8.39,0-15.19-7.211-15.19-16.12
			v-36.33c0-8.91,6.8-16.12,15.19-16.12h38.54c8.392,0,15.19,7.21,15.19,16.12V66.741z"/>
	</g>
</g>
<path stroke="#000000" d="M50,18.145"/>
<path fill="#FFFFFF" stroke="#000000" d="M38.141,29.943V67.21c30.957-18.558,30.957-18.558,30.957-18.558L38.141,29.943z"/>
</svg>
